# xmcd CD database file
#
# Track frame offsets:
#	150
#	36147
#	66341
#	101525
#	136030
#	168804
#
# Disc length: 2644 seconds
#
# Revision: 0
# Processed by: cddbd v1.5.2PL0 Copyright (c) Steve Scherf et al.
# Submitted via: CDex 1.70beta2
#
DISCID=450a5206
DTITLE=Art Blakey and Thelonius Monk - Modern Jazz Hard Bop CD 047
DYEAR=2008
DGENRE=Jazz
TTITLE0=I Mean You
TTITLE1=Evidence
TTITLE2=Blue Monk
TTITLE3=Purple Shades
TTITLE4=Rhythm-A-Ning
TTITLE5=In Walked Bud
EXTD=YEAR: 2008
EXTT0=
EXTT1=
EXTT2=
EXTT3=
EXTT4=
EXTT5=
PLAYORDER=
